<?xml version="1.0" encoding="UTF-8" standalone="no"?>
<svg
   xmlns:dc="http://purl.org/dc/elements/1.1/"
   xmlns:cc="http://creativecommons.org/ns#"
   xmlns:rdf="http://www.w3.org/1999/02/22-rdf-syntax-ns#"
   xmlns:svg="http://www.w3.org/2000/svg"
   xmlns="http://www.w3.org/2000/svg"
   xmlns:xlink="http://www.w3.org/1999/xlink"
   xmlns:sodipodi="http://sodipodi.sourceforge.net/DTD/sodipodi-0.dtd"
   xmlns:inkscape="http://www.inkscape.org/namespaces/inkscape"
   width="210mm"
   height="297mm"
   viewBox="0 0 210 297"
   version="1.1"
   id="svg8"
   inkscape:version="1.0.2 (e86c8708, 2021-01-15)"
   sodipodi:docname="logo3.svg">
  <defs
     id="defs2">
    <inkscape:path-effect
       effect="offset"
       id="path-effect1390"
       is_visible="true"
       lpeversion="1"
       linejoin_type="miter"
       unit="mm"
       offset="0"
       miter_limit="4"
       attempt_force_join="true"
       update_on_knot_move="true" />
    <inkscape:path-effect
       effect="offset"
       id="path-effect1065"
       is_visible="true"
       lpeversion="1"
       linejoin_type="miter"
       unit="mm"
       offset="2"
       miter_limit="4"
       attempt_force_join="true"
       update_on_knot_move="true" />
    <inkscape:path-effect
       effect="offset"
       id="path-effect1056"
       is_visible="true"
       lpeversion="1"
       linejoin_type="miter"
       unit="mm"
       offset="1.2"
       miter_limit="4"
       attempt_force_join="true"
       update_on_knot_move="true" />
    <linearGradient
       inkscape:collect="always"
       id="linearGradient1023">
      <stop
         style="stop-color:#ffffff;stop-opacity:1;"
         offset="0"
         id="stop1019" />
      <stop
         style="stop-color:#ffffff;stop-opacity:0;"
         offset="1"
         id="stop1021" />
    </linearGradient>
    <inkscape:path-effect
       effect="offset"
       id="path-effect3215"
       is_visible="true"
       lpeversion="1"
       linejoin_type="miter"
       unit="mm"
       offset="-2.8652981"
       miter_limit="4"
       attempt_force_join="true"
       update_on_knot_move="true" />
    <inkscape:path-effect
       effect="offset"
       id="path-effect3211"
       is_visible="true"
       lpeversion="1"
       linejoin_type="miter"
       unit="mm"
       offset="-3.3"
       miter_limit="4"
       attempt_force_join="true"
       update_on_knot_move="true" />
    <inkscape:path-effect
       effect="offset"
       id="path-effect3187"
       is_visible="true"
       lpeversion="1"
       linejoin_type="miter"
       unit="mm"
       offset="-0.4"
       miter_limit="4"
       attempt_force_join="true"
       update_on_knot_move="true" />
    <inkscape:path-effect
       effect="offset"
       id="path-effect3177"
       is_visible="true"
       lpeversion="1"
       linejoin_type="miter"
       unit="mm"
       offset="1.2"
       miter_limit="4"
       attempt_force_join="true"
       update_on_knot_move="true" />
    <inkscape:path-effect
       effect="perspective-envelope"
       up_left_point="71.845683,49.878051"
       up_right_point="159.39486,49.878051"
       down_left_point="58.150355,68.779474"
       down_right_point="173.09019,68.779474"
       id="path-effect2245"
       is_visible="true"
       lpeversion="1"
       deform_type="perspective"
       horizontal_mirror="false"
       vertical_mirror="true"
       overflow_perspective="false" />
    <inkscape:path-effect
       effect="perspective-envelope"
       up_left_point="241.08008,369.75"
       up_right_point="571.94922,369.75"
       down_left_point="241.08008,428.48828"
       down_right_point="571.94922,428.48828"
       id="path-effect941"
       is_visible="true"
       lpeversion="1"
       deform_type="perspective"
       horizontal_mirror="false"
       vertical_mirror="true"
       overflow_perspective="false" />
    <linearGradient
       inkscape:collect="always"
       xlink:href="#linearGradient1023"
       id="linearGradient1025"
       x1="107.66654"
       y1="95.13443"
       x2="106.94395"
       y2="103.20062"
       gradientUnits="userSpaceOnUse" />
  </defs>
  <sodipodi:namedview
     id="base"
     pagecolor="#ffffff"
     bordercolor="#666666"
     borderopacity="1.0"
     inkscape:pageopacity="0.0"
     inkscape:pageshadow="2"
     inkscape:zoom="1.0836209"
     inkscape:cx="193.67506"
     inkscape:cy="436.70816"
     inkscape:document-units="mm"
     inkscape:current-layer="layer1"
     inkscape:document-rotation="0"
     showgrid="false"
     inkscape:window-width="2560"
     inkscape:window-height="941"
     inkscape:window-x="0"
     inkscape:window-y="25"
     inkscape:window-maximized="0"
     inkscape:snap-bbox="true"
     inkscape:snap-bbox-midpoints="true"
     inkscape:snap-bbox-edge-midpoints="true"
     inkscape:bbox-nodes="true"
     inkscape:bbox-paths="true"
     inkscape:snap-global="false"
     inkscape:lockguides="false" />
  <metadata
     id="metadata5">
    <rdf:RDF>
      <cc:Work
         rdf:about="">
        <dc:format>image/svg+xml</dc:format>
        <dc:type
           rdf:resource="http://purl.org/dc/dcmitype/StillImage" />
        <dc:title></dc:title>
      </cc:Work>
    </rdf:RDF>
  </metadata>
  <g
     inkscape:label="Layer 1"
     inkscape:groupmode="layer"
     id="layer1">
    <path
       id="path1046"
       style="opacity:1;fill:#6e3d2e;fill-opacity:1;stroke:none;stroke-width:1.0468"
       transform="scale(0.26458333)"
       d="m 398.32031,250.77734 -108.33008,28.08789 9.71485,106.78711 h -41.31641 v 0.11133 h -38.45312 l 0.74609,28.70703 -5.03516,6.74805 -0.54492,37.63281 h 19.05274 l -3.76563,6.63477 -2.9375,37.16797 h 28.50781 2.11914 23.66602 l 0.23633,-0.3086 h 12.9043 l 0.36132,-0.51758 -0.0215,0.51758 h 0.46875 c 0.18549,-0.30153 0.60822,-0.5283 1.26562,-0.49609 l 3.40821,0.16601 c 1.23831,0.0351 2.47653,0.0715 3.71484,0.10547 0.22377,0.10354 0.4415,0.23129 0.6582,0.36133 0.0182,-7e-5 0.0365,8e-5 0.0547,0 0.31567,-9.8e-4 0.7287,-0.22599 0.94727,0.002 0.034,0.0354 0.0567,0.0781 0.082,0.11914 0.0162,10e-4 0.0413,0.004 0.0566,0.006 -0.13416,-0.12146 -0.25172,-0.24428 -0.29492,-0.35157 -0.0566,-0.1406 0.30217,0.0355 0.45312,0.0469 0.88002,0.074 1.52478,0.11325 2.18555,0.1582 0.005,-0.0454 0.004,-0.0915 0.0117,-0.13672 0.0247,-0.13833 0.27723,-0.007 0.41601,-0.008 0.34218,-8.7e-4 0.68515,-0.003 1.02735,-0.004 0.41418,-0.001 0.94447,-0.288 1.24219,0 0.0136,0.0132 0.0199,0.0222 0.0332,0.0352 0.0327,0.008 0.0648,0.0154 0.0918,0.0176 6.2e-4,-0.005 9.5e-4,-0.009 0.002,-0.0137 0.21708,-0.0129 0.45731,-0.0317 0.64648,-0.008 1.58852,-0.0479 3.17713,-0.11104 4.76367,-0.19922 h 2.15625 c 0.1361,-0.0126 0.27167,-0.0306 0.40821,-0.0391 0.0999,-0.006 0.19946,0.022 0.29883,0.0391 h 5.24218 v 0.004 c 0.35083,0 0.61195,0.083 0.82422,0.19531 h 0.0566 l 0.0957,-0.30273 h 27.00976 c 14.55532,9.25621 0.99688,0.19717 41.59766,27.02539 l 4.05273,2.67773 49.33985,-30.78906 0.24414,1.08594 h 23.94726 0.81836 34.07617 l 0.0879,0.20508 h 51.23828 l 2.84961,-36.42774 -4.28906,-7.21289 h 1.94922 0.94336 28.79102 l 0.50195,-36.23047 -17.72461,-36.79883 h -26.94336 -2.87891 -14.21093 -9.64063 -20.35937 l 9.70703,-106.71289 z m -78.41601,254.1875 -0.16797,0.006 c -0.0446,0.011 -0.0901,0.0211 -0.12695,0.043 0.0986,-0.0162 0.19693,-0.0306 0.29492,-0.0488 z m 20.24023,10.88868 c -0.0296,0.01 -0.0592,0.0208 -0.0898,0.0312 0.0702,0.049 0.14075,0.0976 0.21093,0.14648 l 0.002,-0.002 c -0.0259,-0.0372 -0.0713,-0.1023 -0.12305,-0.17578 z"
       inkscape:export-xdpi="96"
       inkscape:export-ydpi="96" />
    <path
       id="rect3200"
       style="opacity:1;fill:#ffcc00;fill-opacity:1;stroke:none;stroke-width:1.0468"
       transform="scale(0.26458333)"
       d="m 398.32031,258.58398 -100.21484,25.98438 16.9375,186.22266 c 8.44505,2.47472 83.27734,51.9707 83.27734,51.9707 l 83.27735,-51.9707 16.9375,-186.22266 z"
       inkscape:export-xdpi="96"
       inkscape:export-ydpi="96" />
    <path
       id="path3222"
       style="opacity:1;fill:#fffbc1;fill-opacity:1;stroke:none;stroke-width:0.999999"
       transform="scale(0.26458333)"
       d="m 306.03711,501.70117 c 0.0523,0.10909 0.39672,0.37735 0.78125,0.66016 0.024,0.002 0.0506,0.004 0.0742,0.006 -0.37824,-0.28008 -0.71926,-0.54586 -0.80274,-0.66602 -0.005,0.008 -0.0598,-0.0151 -0.0527,0 z"
       inkscape:export-xdpi="96"
       inkscape:export-ydpi="96" />
    <path
       style="opacity:1;fill:#fffbc1;fill-opacity:1;stroke:none;stroke-width:0.999999"
       d="m 417.05664,275.83008 59.45117,28.17187 -13.90039,131.03516 -50.91797,42.66016 58.13867,-33.10743 15.2129,-152.66601 z"
       transform="scale(0.26458333)"
       id="path3220"
       inkscape:export-xdpi="96"
       inkscape:export-ydpi="96" />
    <path
       style="opacity:1;fill:#fffbc1;fill-opacity:1;stroke:none;stroke-width:0.999999"
       d="m 379.58203,275.83008 -67.98437,16.09375 15.14648,151.93359 c 1.63911,0.8315 3.29076,1.67073 5.24805,2.72461 0,0 -11.61089,-8.18376 54.88281,31.71875 C 345.47191,441.26521 347.31055,444.25 347.31055,444.25 c -2.51597,-2.0578 -4.90763,-3.97184 -7.06446,-5.64844 -2.32874,-1.81035 -4.50773,-3.42676 -6.34179,-4.6875 L 320.13086,304.00195 Z"
       transform="scale(0.26458333)"
       id="path3207"
       inkscape:export-xdpi="96"
       inkscape:export-ydpi="96" />
    <path
       id="path3174"
       style="opacity:1;fill:#d4aa00;fill-opacity:1;stroke:none;stroke-width:0.529167;stroke-opacity:0.6"
       d="m 133.52148,104.01758 0.002,0.0684 h -9.89649 -0.4375 -3.23242 l 0.0684,2.59961 h -0.48437 l -0.72657,-2.59961 h -5.70507 -0.64454 -9.53125 l -0.002,-0.0488 h -5.142578 l -0.246093,2.5957 h -0.707031 l -0.06641,-2.5957 h -5.716797 -0.890625 -9.011718 -0.822266 -9.962891 v 0.0293 H 60.244141 l 0.162109,6.23437 -1.359375,1.82227 -0.105469,7.28125 h 5.269532 l 2.138671,-2.97461 -0.04492,1.35742 -3.388672,5.97266 -0.572266,7.23437 h 4.767578 l 1.691406,-3.02344 0.623047,1.42578 0.623047,-0.41796 -0.160156,2.01562 h 3.666016 l 0.0625,-0.082 h 3.36914 l 1.994141,-2.81641 h 1.373047 l -0.140625,2.81641 h 4.429687 l 0.02539,-0.0801 h 9.541015 0.316407 4.835937 L 99.677734,127.75 h 0.125 l 1.378906,3.08203 h 3.61328 1.0332 4.1504 l 0.5,-6.43164 h 1.08984 l 0.73437,6.43164 h 5.06055 l 0.50391,-6.43164 h 0.76953 l 1.4414,6.43164 h 4.73438 0.2168 10.33398 l 0.0234,0.0547 h 10.38867 l 0.56055,-7.16211 -2.60547,-4.38477 h 4.0293 0.25 5.64453 l 0.0996,-7.14257 -3.93946,-8.17969 h -4.58007 l 0.0469,1.76758 -2.07617,-1.76758 h -4.27735 l 0.008,0.27344 -0.29688,-0.27344 z m -30.49218,8.07422 0.55468,0.41601 0.002,1.40235 -0.004,0.77929 h -0.73242 z"
       inkscape:path-effect="#path-effect3177"
       inkscape:original-d="m 134.75187,105.21663 0.016,0.6196 -1.07591,-0.5519 h -9.27282 l 0.0238,0.92656 -0.14211,-0.35554 -0.99477,-0.57102 h -2.11615 l 0.0677,2.60035 h -2.62671 l -0.72606,-2.60035 h -4.20801 l 0.0212,0.80822 -0.0403,-0.20722 -0.92397,-0.601 h -9.37772 l 0.14676,5.67665 1.2578,0.94361 0.005,2.01177 -0.0114,2.50269 -0.0217,1.80971 h 0.1602 l -0.11059,3.33675 1.13016,1.09554 0.0543,6.9727 h 2.882 l 0.44286,-5.67665 -0.17725,-2.19109 1.60817,1.43506 h 1.89601 l 0.73381,6.43268 h 2.88096 l 0.44338,-5.67665 -0.14159,-0.75603 h 1.39629 l 0.21033,-4.97231 h 0.0584 l -0.11058,3.33675 1.36684,1.09554 1.56321,6.9727 h 2.88096 l 0.37879,-4.8519 1.41335,4.8519 h 8.67389 l 0.26406,-3.38584 0.03,0.0677 h 0.69815 l -0.0925,1.37407 0.88109,1.9973 h 8.49819 l 0.44493,-5.67666 -3.08198,-5.18212 h -0.80357 l 0.0537,-1.2609 -0.9741,-1.63763 h -1.05988 l 0.0217,-1.5012 3.72586,3.71192 h 3.83336 l 0.0181,-1.26504 1.3839,1.26504 h 4.24367 l 0.0801,-5.67666 -3.49073,-7.2471 h -2.59313 l 0.0853,3.22616 -3.7884,-3.22616 h -2.60397 l 0.0496,1.88154 -2.03967,-1.88154 z m -43.357037,0.0191 0.143145,5.43119 v 0.001 0.001 l -0.09199,0.42633 -0.116271,-5.18366 -0.74259,-0.67541 h -9.02684 l 0.07907,3.01842 -0.335381,0.82062 -0.0708,-3.15846 -0.615982,-0.68058 h -9.018571 l 0.05478,2.08205 v 5.1e-4 5.2e-4 l -0.321426,0.53071 -0.03928,-1.81538 -0.555522,-0.76843 h -9.260416 l 0.141078,5.41671 -1.378212,1.84589 -0.08165,5.67666 h 3.437515 l 4.171839,-5.80223 h 0.811836 l -0.05219,0.0863 -0.05013,3.52433 h -0.912088 l -0.07131,2.10685 -3.402377,5.99756 -0.448551,5.67615 h 2.765205 l 2.526461,-4.51601 1.015958,2.32182 1.489832,-1.00149 -0.25218,3.19568 h 1.768882 l 1.35961,-1.7968 -0.134877,1.71617 h 2.183847 l 1.994194,-2.81792 h 3.255097 l -0.14056,2.81792 h 2.286683 l 0.732255,-2.3549 0.371552,-5.67664 -0.07597,-3.51607 h 1.429888 l -0.08526,2.57451 -0.849561,3.21635 -0.443383,5.67665 h 8.673888 l 1.381829,-8.06824 0.188096,-5.67665 h -0.284217 l 0.146246,-0.76636 h 3.213763 l -0.0109,0.76636 h -2.425172 l -0.18759,5.67665 0.603582,0.68419 -0.18965,1.7074 -0.443382,5.67665 h 2.770372 l 0.316783,-3.08302 h 1.98798 l 1.37718,3.08302 h 2.76004 l 0.44286,-5.67665 -0.68678,-1.33274 0.10697,-1.75028 -0.0682,-4.98522 h -2.95021 l 0.3452,-4.97645 -0.14779,-5.67665 h -2.88044 l -0.24494,2.59622 h -2.968825 l -0.0682,-2.59622 z"
       inkscape:export-xdpi="96"
       inkscape:export-ydpi="96" />
    <path
       id="path2247"
       style="font-style:normal;font-variant:normal;font-weight:normal;font-stretch:normal;font-size:10.5833px;line-height:1.25;font-family:FalconsFont;-inkscape-font-specification:'FalconsFont, Normal';font-variant-ligatures:normal;font-variant-caps:normal;font-variant-numeric:normal;font-variant-east-asian:normal;opacity:1;fill:#fffbc1;fill-opacity:1;stroke:none;stroke-width:0.264583"
       d="m 134.711,105.21663 1.71488,0.86853 6.60543,6.37873 h 3.83251 l -0.73086,-1.89508 2.13318,1.89508 h 4.24401 l -3.49046,-7.24726 h -2.59312 l 2.1795,5.01015 -5.88315,-5.01015 h -2.60398 l 2.9512,2.62511 0.99639,2.83044 h -0.0237 l -5.91347,-5.45555 z m -43.356696,0.0191 1.10048,0.98668 -1.3505,6.26728 h 3.3019 l 0.48334,-3.04356 h 3.553766 l -0.287013,3.04356 h 3.289733 l 0.27379,-7.25396 h -2.87979 l -0.24436,2.59644 h -3.449935 l 0.41228,-2.59644 z m -19.796518,5e-4 0.72302,0.97659 -3.794766,6.27689 h 9.84605 l 0.780349,-1.79365 h -6.212926 l 0.681826,-1.24991 h 6.075171 l 0.707204,-1.62461 h -5.896081 l 0.608853,-1.11646 h 5.773092 l 0.342717,-0.78808 -0.615594,-0.68076 z m 9.961793,0 0.910142,0.98619 -2.562188,6.26729 h 9.846059 l 0.429672,-1.79365 h -6.212931 l 1.395557,-3.99099 h 5.773084 l 0.18984,-0.79358 -0.74257,-0.67526 z m -20.083352,0.0299 0.849211,1.46054 h 2.245316 l -4.331744,5.80238 h 3.437637 l 3.988498,-5.80238 h 3.192914 l 0.433708,-0.69228 -0.555295,-0.76826 z m 41.898903,0.0182 1.33373,0.97815 0.0649,3.23982 h 6.47171 l 0.1701,1.24044 h -6.61723 l 0.0357,1.80976 h 10.13566 l -0.90732,-4.6776 h -6.28088 l -0.0861,-1.12914 h 6.14829 l -0.1668,-0.86021 -0.92346,-0.60122 z m 10.3215,0 1.53405,0.98777 1.39729,6.2804 h 3.30612 l -0.85173,-3.0502 h 3.55684 l 1.0484,3.0502 h 3.29394 l -2.68121,-6.69694 -0.99507,-0.57123 h -2.11645 l 0.89439,2.60067 h -3.45283 l -0.72613,-2.6007 z m 10.72142,0 1.74174,0.98777 2.71906,6.2804 h 10.41383 l -3.91937,-6.40525 -1.68241,-0.86292 z m 4.92795,1.47172 h 3.42336 l 2.21942,3.99893 h -3.68438 z m -43.052825,9.13288 0.831391,1.09571 -1.84196,6.97274 h 8.673868 l 1.126681,-8.06845 h -2.448631 l -1.09011,6.07484 h -3.055196 l 1.364706,-6.07484 z m 9.43026,0 1.000202,1.09571 -0.77456,6.97274 h 2.769873 l 0.21978,-3.08338 h 1.98785 l 1.47425,3.08338 h 2.76038 l -1.58826,-3.08338 h 1.00791 l -0.0672,-4.98507 z m 9.265455,0 1.16463,1.09571 0.27493,6.97274 h 2.88159 l -0.65296,-8.06849 z m 4.10739,0 1.88452,1.63542 h 1.89659 l 0.93672,6.43303 h 2.88159 l -1.20323,-6.43303 h 2.69778 l -0.37576,-1.63542 z m 9.2004,0 1.40124,1.09571 1.78324,6.97274 h 2.88091 l -2.39703,-8.06845 z m 4.1317,0 1.47418,1.09571 2.25171,6.97274 h 8.67386 l -3.61038,-8.06845 h -2.44862 l 2.47696,6.07484 h -3.05453 l -2.20244,-6.07484 z m 9.25002,0.0407 1.63131,1.09698 1.708,3.61233 h 5.4489 l 0.76268,1.37438 h -5.56219 l 0.9443,1.99704 h 8.49743 l -3.08174,-5.18201 h -5.29981 l -0.64582,-1.2607 h 5.19587 l -0.97428,-1.63802 z m -52.792683,0.0217 0.691285,1.09765 -4.950579,6.98829 h 2.183703 l 1.904997,-2.81803 h 3.255143 l -0.05128,2.81803 h 2.286724 l 0.657852,-2.35497 -0.123882,-5.73097 z m -11.321866,0.0625 0.500036,1.10029 -3.973798,7.00404 h 2.76532 l 2.383399,-4.51639 1.089448,2.32216 3.38025,-2.32216 -2.073494,4.51639 h 1.769369 l 2.387476,-3.29296 2.017971,-4.81137 h -1.419854 l -4.694701,3.1399 -1.587136,-3.1399 z m 31.613759,1.51056 h 2.84458 l -0.0395,1.52643 h -2.91382 z m -18.006119,0.0774 h 0.87614 l -0.0331,1.78764 h -2.056883 z"
       inkscape:export-xdpi="96"
       inkscape:export-ydpi="96" />
    <path
       id="path3185"
       style="font-style:normal;font-variant:normal;font-weight:normal;font-stretch:normal;font-size:10.5833px;line-height:1.25;font-family:FalconsFont;-inkscape-font-specification:'FalconsFont, Normal';font-variant-ligatures:normal;font-variant-caps:normal;font-variant-numeric:normal;font-variant-east-asian:normal;opacity:1;fill:#ffdd55;fill-opacity:1;stroke:none;stroke-width:0.264583"
       d="m 63.579611,108.66812 -2.58227,3.46025 h 2.427758 l 2.378149,-3.46025 z m 7.683769,0 -2.068607,3.42098 h 8.87491 l 0.431499,-0.99219 h -6.27507 l 1.117245,-2.05052 h 6.050793 l 0.164846,-0.37827 z m 10.598836,0 -1.397847,3.42098 h 8.935371 l 0.236161,-0.99219 h -6.267317 l 0.84801,-2.42879 z m 10.474295,0 -0.737423,3.42098 h 2.464967 l 0.484209,-3.04271 h 4.334106 l -0.28732,3.04271 h 2.46496 l 0.12919,-3.42098 z m 12.781129,0 0.009,0.43305 h 6.42958 l 0.27957,2.04277 h -6.66833 l 0.0196,1.00769 h 9.25783 l -0.67541,-3.48351 z m 11.01587,0 0.77411,3.48351 h 2.45877 l -0.85163,-3.05046 h 4.36924 l 1.0511,3.05046 h 2.41587 l -1.39423,-3.48351 z m 11.45925,0 1.50791,3.48351 h 9.43767 l -2.13217,-3.48351 h -2.15749 l 1.37976,2.4877 h -4.61367 l -1.2175,-2.4877 z m 12.08246,0 3.51555,3.39566 h 3.08973 l -1.11517,-2.88665 3.252,2.88665 h 3.45508 l -1.63452,-3.39566 h -1.87172 l 1.29707,2.98173 -3.50314,-2.98173 h -2.37505 l 0.84543,2.40347 h -0.74414 l -2.60501,-2.40347 z m -52.615389,7.62021 0.463021,0.60978 -1.759583,6.65799 h 7.806243 l 1.013891,-7.26777 h -1.652611 l -1.091406,6.07611 h -3.890719 l 1.365289,-6.07611 z m 9.531196,0 0.51005,0.55862 -0.74414,6.70915 h 1.949243 l 0.21859,-3.08198 h 2.61327 l 1.47485,3.08198 h 1.85156 l -1.58801,-3.08198 h 1.2578 l -0.0548,-4.18579 z m 9.365323,0 0.54881,0.51573 0.26768,6.75204 h 2.06447 l -0.59014,-7.26777 z m 4.17184,0 0.96118,0.83612 h 2.09341 l 0.93793,6.43165 h 2.05466 l -1.2051,-6.43165 h 2.67581 l -0.19172,-0.83612 z m 9.28936,0 0.59376,0.46509 1.73994,6.80268 h 2.03502 l -2.15801,-7.26777 z m 4.17958,0 0.6072,0.45113 2.20142,6.81664 h 7.76542 l -3.25407,-7.26777 h -1.59163 l 2.47685,6.07611 h -3.93206 l -2.20297,-6.07611 z m 9.35137,0.0413 0.63511,0.42736 1.64796,3.48093 h 5.43171 l 1.20509,2.17558 h -5.60948 l 0.5669,1.19734 h 7.54062 l -2.60708,-4.38268 h -5.31647 l -1.05471,-2.06086 h 5.14645 l -0.50023,-0.83767 z m -53.37865,0.0212 0.447,0.71106 -4.656045,6.57428 h 1.197343 l 1.904275,-2.81843 h 3.876768 l -0.05271,2.81843 h 1.576131 l 0.558623,-1.99988 -0.113173,-5.28546 z m -11.424111,0.0625 0.328147,0.72089 -3.736205,6.5841 h 1.837614 l 2.644798,-5.01365 1.230416,2.62309 4.187341,-2.87734 -2.41949,5.2679 h 0.943096 l 2.238105,-3.09026 1.767851,-4.21473 h -0.695566 l -4.968687,3.32435 -1.681551,-3.32435 z m 30.619321,0.71107 h 3.62665 l -0.0584,2.32596 h -3.73414 z m -17.843872,0.076 h 1.493967 l -0.04858,2.59002 h -3.204972 z"
       inkscape:export-xdpi="96"
       inkscape:export-ydpi="96" />
    <path
       style="fill:url(#linearGradient1025);fill-opacity:1;stroke-width:0.155192"
       d="m 102.25836,116.81652 c -3.532694,-0.43733 -6.032594,-1.28988 -6.735994,-2.29717 -0.23345,-0.33431 -0.32129,-0.72703 -0.32175,-1.43833 -5e-4,-0.91425 0.0374,-1.01519 0.5787,-1.53837 0.32329,-0.31246 1.02115,-0.73306 1.57905,-0.95169 1.35922,-0.53262 3.917644,-1.0821 5.547904,-1.19152 l 1.34512,-0.0903 0.26945,0.99748 0.26945,0.99749 0.0211,-4.02054 0.0211,-4.02054 -0.50816,-0.22945 c -0.70301,-0.31743 -1.79044,-1.19782 -2.07682,-1.68139 -0.38311,-0.6469 -0.28459,-1.379281 0.34292,-2.549319 0.31971,-0.596108 0.58127,-1.174231 0.58127,-1.28471 0,-0.110487 -0.22751,-0.303608 -0.50558,-0.429175 -0.96195,-0.434357 -1.37655,-1.427204 -0.97811,-2.342281 0.0974,-0.223701 0.13177,-0.617688 0.0763,-0.875525 -0.0863,-0.401616 -0.19947,-0.492019 -0.78985,-0.630831 -0.92171,-0.216714 -1.656914,-0.894436 -2.103304,-1.938842 l -0.36763,-0.860178 0.34111,-0.402863 c 0.42576,-0.502866 0.43093,-0.611808 0.0198,-0.419709 -0.17667,0.08257 -0.36352,0.150121 -0.41518,0.150121 -0.21783,0 -0.0689,-0.568783 0.23819,-0.909682 0.42632,-0.473254 0.42084,-0.592154 -0.0178,-0.387152 -0.62648,0.292764 -0.76707,-0.07046 -0.26553,-0.685979 0.42621,-0.523052 0.4795,-0.856794 0.0813,-0.509087 -0.26198,0.228767 -0.62833,0.218418 -0.62833,-0.01774 0,-0.104144 0.18596,-0.409448 0.41326,-0.678452 0.40415,-0.478337 0.43856,-0.80411 0.049,-0.463946 -0.26181,0.228604 -0.62834,0.21848 -0.62834,-0.01735 0,-0.103927 0.23691,-0.470262 0.52648,-0.81408 l 0.52649,-0.625119 -0.51823,0.234005 c -0.28504,0.128704 -0.55933,0.234006 -0.60953,0.234006 -0.25061,0 -0.035,-0.527879 0.4209,-1.030515 0.52411,-0.577813 0.48739,-0.722036 -0.0873,-0.342548 -0.76107,0.502654 -0.81537,-0.06345 -0.0807,-0.841681 0.52378,-0.55484 0.486,-0.695804 -0.0853,-0.318466 -0.69456,0.458716 -0.81775,0.02637 -0.20037,-0.703125 0.65997,-0.779783 0.68875,-0.895518 0.13753,-0.552788 l -0.52821,0.328432 v -0.986668 c 0,-1.278048 0.53974,-2.243727 1.9267,-3.447099 1.249374,-1.083987 2.540014,-1.771392 3.680474,-1.960251 1.57091,-0.260137 5.24056,0.330808 6.87355,1.106884 1.50788,0.716618 2.04797,1.955757 3.05888,7.018015 0.78517,3.931832 0.87388,6.227122 0.27828,7.200403 -0.56589,0.924757 -1.45614,1.61686 -2.79259,2.171057 l -1.20523,0.49978 0.0901,1.621255 c 0.10217,1.839872 -0.11935,2.583307 -0.85723,2.876867 l -0.42383,0.168628 v 3.035118 3.03512 l 0.80895,0.79252 c 0.44492,0.43589 1.02411,1.13155 1.28711,1.54593 0.41847,0.65936 0.47816,0.90277 0.47816,1.94982 0,1.12261 0.0217,1.1964 0.35239,1.1964 0.63433,0 3.52561,0.69909 4.54761,1.09957 0.55789,0.21862 1.25577,0.63922 1.57904,0.95168 0.54291,0.52472 0.57932,0.62235 0.57932,1.55318 0,0.79232 -0.0764,1.09296 -0.37792,1.48602 -0.76118,0.99246 -3.77894,1.95168 -7.25735,2.30682 -1.88589,0.19254 -5.71831,0.15597 -7.56095,-0.0721 z m 7.81121,-1.09917 c 1.8114,-0.22 3.64699,-0.65353 4.85231,-1.14601 0.57089,-0.23326 1.03799,-0.4478 1.03799,-0.47674 0,-0.0289 -0.62018,0.12852 -1.37818,0.34989 -2.5051,0.73165 -4.12956,0.90965 -8.33744,0.91356 -2.4167,0.002 -4.29781,-0.0668 -5.12109,-0.188 -0.7157,-0.10535 -1.33829,-0.15924 -1.38353,-0.11973 -0.0923,0.0806 2.00994,0.50851 3.32219,0.67617 1.32337,0.16908 5.58608,0.16352 7.00775,-0.009 z m -3.09738,-11.12032 c -0.0106,-4.28711 -0.0681,-8.21892 -0.12762,-8.737358 -0.0594,-0.518443 -0.15642,2.939284 -0.21535,7.683848 -0.0589,4.74455 -0.0718,8.67635 -0.0286,8.73735 0.33847,0.47821 0.38934,-0.5735 0.37163,-7.68384 z m 2.40979,4.51996 c 0.38441,-0.87474 -0.20629,-2.62621 -1.14559,-3.39673 l -0.41439,-0.33993 v 1.89843 c 0,2.04645 -0.005,2.03551 0.93719,2.05617 0.33182,0.008 0.55872,-0.0721 0.62279,-0.21794 z m 0.4311,-2.49761 c -0.19642,-0.3987 -0.55012,-0.87816 -0.78599,-1.06546 -0.38767,-0.30786 -0.37751,-0.27425 0.10579,0.34997 0.29404,0.3798 0.61381,0.88888 0.71059,1.1313 0.0968,0.24242 0.20989,0.41114 0.25135,0.37492 0.0414,-0.0362 -0.0853,-0.39204 -0.28174,-0.79073 z m -6.0428,-4.69434 c -0.82336,-0.59262 -1.13834,-1.22747 -0.92753,-1.86935 0.0864,-0.263367 0.12637,-0.505829 0.0886,-0.538819 -0.0378,-0.03299 -0.15721,0.198016 -0.26541,0.513349 -0.16709,0.48696 -0.15273,0.65428 0.0952,1.11061 0.16059,0.29551 0.56022,0.69645 0.88807,0.89097 0.82743,0.49096 0.88314,0.4418 0.121,-0.10676 z m 0.85944,-3.913013 c -0.37307,-0.206725 -0.44053,-0.142629 -1.0377,0.98596 -0.8531,1.612263 -0.78413,2.035123 0.46031,2.822743 l 0.69721,0.44127 0.0462,-2.06616 c 0.0349,-1.555411 -0.006,-2.095239 -0.16607,-2.183813 z m 1.10106,-1.76094 c 0.13104,-0.414676 0.28607,-1.06394 0.34452,-1.442799 l 0.10626,-0.688837 h 0.88818 0.88818 l 0.18212,0.978871 c 0.1002,0.538383 0.20528,1.142023 0.2336,1.341422 0.0427,0.301389 0.0739,0.270099 0.1845,-0.185489 0.0732,-0.301417 0.08,-1.166085 0.0151,-1.921488 l -0.11788,-1.373465 h -1.52073 -1.52074 v 1.776478 c 0,0.977061 -0.0641,1.931475 -0.14235,2.120926 -0.0988,0.239072 -0.0868,0.31445 0.0393,0.246397 0.0999,-0.05395 0.28891,-0.437333 0.41993,-0.852016 z m -1.3108,-0.0039 c 0.41073,-0.512036 0.31089,-1.224013 -0.23894,-1.704128 -0.267,-0.233146 -0.61122,-0.423901 -0.76491,-0.423901 -0.20759,0 -0.14681,0.108211 0.23634,0.420732 0.38199,0.31158 0.51579,0.549028 0.51579,0.915275 0,0.477116 -0.4833,1.129307 -0.83686,1.129307 -0.0878,0 -0.15961,0.06186 -0.15961,0.137475 0,0.231199 0.9813,-0.14204 1.24819,-0.474754 z m -0.32362,-4.002409 c 0.98633,-0.493998 1.64499,-1.196773 2.174,-2.319623 0.23548,-0.499828 0.38271,-0.684997 0.38514,-0.484397 0.006,0.521724 -0.60719,1.78066 -1.16108,2.382508 -0.61058,0.663422 -0.45577,0.708953 0.45397,0.133512 0.75817,-0.479572 1.23583,-1.018045 1.70661,-1.923856 0.17918,-0.344775 0.32743,-0.553496 0.32943,-0.463824 0.008,0.384651 -0.54,1.452718 -1.08877,2.119697 l -0.59305,0.720813 0.69834,-0.341626 c 0.91249,-0.446395 1.73646,-1.299498 2.14023,-2.215892 0.39049,-0.886274 0.43871,-0.711681 0.0882,0.319115 -0.13942,0.409903 -0.51259,1.041702 -0.82931,1.403996 -0.3167,0.362295 -0.53373,0.658719 -0.48229,0.658719 0.0514,0 0.41173,-0.191161 0.80062,-0.4248 0.77992,-0.468544 1.48386,-1.205197 1.84494,-1.930642 0.12932,-0.25983 0.23806,-0.400584 0.24163,-0.312786 0.0145,0.357397 -0.40549,1.185585 -0.93037,1.834369 -0.30651,0.378864 -0.50007,0.688837 -0.43015,0.688837 0.32358,0 1.94354,-1.425241 2.21659,-1.950175 0.19829,-0.381186 0.30696,-0.484991 0.30934,-0.295461 0.005,0.402548 -0.58843,1.34874 -1.21705,1.940443 l -0.52313,0.492402 0.55835,-0.274878 c 0.82813,-0.407689 1.65889,-1.327361 1.93657,-2.143847 0.25847,-0.759979 0.32626,-2.21854 0.11652,-2.506476 -0.068,-0.09345 -0.53404,-0.266983 -1.03545,-0.385624 l -0.91168,-0.215709 0.95496,-0.01318 c 0.81832,-0.0113 0.95495,-0.05216 0.95495,-0.285619 0,-0.276205 -0.37713,-0.458815 -1.49471,-0.72375 -0.55441,-0.131426 -0.53713,-0.1384 0.37367,-0.150875 0.74565,-0.01021 0.95496,-0.06238 0.95496,-0.238007 0,-0.230598 -0.80736,-0.590404 -1.65821,-0.738994 l -0.478,-0.08348 0.067,1.140027 c 0.0595,1.012125 0.0488,1.066813 -0.0957,0.487446 -0.0896,-0.358921 -0.39052,-2.120895 -0.66874,-3.915498 -0.2782,-1.794602 -0.5386,-3.426059 -0.57866,-3.62546 -0.0401,-0.1994 0.075,0.029 0.25581,0.507565 0.18076,0.47856 0.33081,1.000627 0.33346,1.160147 0.008,0.474898 0.20708,0.606666 1.03771,0.686322 0.68259,0.06546 0.78887,0.04028 0.78887,-0.18698 0,-0.172742 -0.29843,-0.3904 -0.87193,-0.635936 l -0.8719,-0.373307 0.78887,0.07091 c 0.43389,0.039 0.78888,0.04486 0.78888,0.01303 0,-0.305998 -0.3544,-0.608604 -1.06317,-0.907811 l -0.84674,-0.357445 0.70583,0.08598 c 0.44253,0.05391 0.70583,0.0295 0.70583,-0.06541 0,-0.324253 -0.471,-1.09877 -0.83602,-1.374732 -0.24364,-0.18421 -0.33828,-0.210667 -0.25938,-0.07251 0.0684,0.11964 -0.0153,0.08028 -0.18592,-0.08747 -0.41577,-0.408837 -1.04377,-0.701954 -1.04377,-0.48717 0,0.08835 -0.19693,0.02539 -0.4376,-0.139917 -0.48587,-0.333721 -1.15351,-0.416933 -0.95709,-0.119289 0.0658,0.0997 -0.0655,0.03444 -0.29154,-0.145018 -0.22615,-0.179461 -0.6145,-0.326291 -0.86302,-0.326291 -0.41568,0 -0.43623,0.02613 -0.25682,0.326291 0.16425,0.274737 0.12706,0.26328 -0.23534,-0.07251 -0.23671,-0.21934 -0.52738,-0.403792 -0.64592,-0.409896 -0.11855,-0.0061 -0.34632,-0.03296 -0.50616,-0.05968 -0.34116,-0.05703 -0.3747,0.08215 -0.083,0.344582 0.11417,0.102739 -0.0703,0.0453 -0.40996,-0.127637 -0.61275,-0.311993 -0.625,-0.312396 -1.57775,-0.05191 l -0.9602,0.262522 0.70654,0.0475 c 0.58444,0.03929 0.74945,0.119984 0.95496,0.46699 0.13662,0.230717 0.24841,0.511243 0.24841,0.62339 0,0.14634 0.32078,0.229938 1.13625,0.296116 0.62494,0.05072 1.57781,0.221313 2.11751,0.379104 l 0.98126,0.286891 -1.96299,-0.08318 c -1.95065,-0.08265 -1.96945,-0.08034 -2.98943,0.367955 -0.56453,0.248123 -1.32537,0.684572 -1.69074,0.969886 -0.7541,0.588867 -0.74923,0.588325 0.83039,-0.09249 1.08819,-0.469002 1.26349,-0.500349 2.74031,-0.490015 0.97765,0.0068 1.86201,0.09792 2.3251,0.239445 l 0.74736,0.228404 -1.90991,0.01445 c -1.74352,0.0132 -1.99672,0.05078 -2.90638,0.431382 -0.54806,0.229311 -1.29541,0.651029 -1.66079,0.937152 l -0.66432,0.520222 1.2456,-0.538466 c 1.21121,-0.523605 1.296,-0.538387 3.07246,-0.535596 1.15723,0.0018 2.10081,0.08155 2.57422,0.217527 l 0.74736,0.214658 -2.24207,0.07251 c -2.50223,0.08092 -3.19371,0.275038 -4.41868,1.240409 l -0.64672,0.509681 1.02182,-0.434952 c 1.72636,-0.734845 3.43255,-0.856397 5.62133,-0.400473 0.81448,0.169657 0.79039,0.174383 -1.2567,0.246561 -1.95273,0.06885 -2.15587,0.104417 -3.1555,0.552476 -0.86871,0.389381 -2.65421,1.517403 -2.06488,1.304525 0.0913,-0.033 0.57712,-0.227656 1.07951,-0.43258 1.07986,-0.440471 2.36696,-0.700408 3.46814,-0.700408 1.01635,0 2.73492,0.29862 2.56079,0.444966 -0.0732,0.06154 -0.95521,0.133424 -1.95999,0.15975 -1.64701,0.04315 -1.93316,0.09267 -2.90638,0.502958 -0.59374,0.2503 -1.34109,0.660329 -1.66079,0.911178 l -0.58128,0.456087 0.83039,-0.362224 c 1.42762,-0.622731 2.77989,-0.848441 4.55843,-0.760852 0.87257,0.04297 1.80313,0.124765 2.06789,0.181762 0.27266,0.05869 0.44316,0.04735 0.3932,-0.02616 -0.0485,-0.07138 -0.13483,-0.488711 -0.19181,-0.927392 -0.057,-0.43868 -0.14533,-1.091263 -0.19633,-1.450184 -0.17783,-1.251496 -0.21327,-1.528382 -0.30613,-2.392804 -0.0765,-0.711214 -0.0624,-0.790661 0.0772,-0.435054 0.26794,0.683035 0.95296,4.929873 1.05314,6.528912 0.0887,1.415162 -0.0301,1.258244 -0.30391,-0.401885 l -0.11364,-0.688837 -1.11086,0.0064 c -2.79121,0.016 -4.5511,0.450724 -5.84411,1.443584 l -0.58127,0.446349 0.66931,-0.282246 c 1.35391,-0.570937 2.59104,-0.795789 4.31306,-0.78391 0.91343,0.0063 1.885,0.07378 2.15902,0.149952 0.42833,0.119062 0.28851,0.153754 -0.99647,0.24725 -0.82209,0.05981 -1.86839,0.167398 -2.32511,0.239072 -0.94313,0.148007 -2.5813,0.814899 -3.32158,1.3522 -0.49677,0.360567 -0.49481,0.360391 0.66737,-0.05978 1.78744,-0.646205 4.45126,-0.909183 5.97579,-0.58994 0.49522,0.103699 0.49571,0.104841 0.083,0.187863 -0.22836,0.04594 -1.16255,0.151239 -2.07598,0.233996 -1.43024,0.129577 -1.85029,0.234195 -3.0258,0.753594 -1.775,0.784274 -2.11063,1.125711 -0.62737,0.638211 0.61667,-0.202686 1.16254,-0.332456 1.21301,-0.288378 0.0504,0.04408 0.12644,0.650284 0.16879,1.347126 0.093,1.530598 0.33246,1.231463 0.34978,-0.436984 0.009,-0.866433 0.0655,-1.123893 0.2462,-1.123893 0.536,0 0.44344,2.185853 -0.13383,3.160601 -0.13913,0.234927 -0.63782,0.729292 -1.10822,1.098587 -1.0079,0.791266 -0.71904,0.909611 0.60347,0.247242 z m 7.89073,-2.995822 c 0.008,-0.168939 0.0473,-0.203301 0.1003,-0.08761 0.0479,0.104684 0.0421,0.229763 -0.0131,0.277952 -0.0552,0.04819 -0.0944,-0.03746 -0.0873,-0.190337 z M 99.86288,89.109464 c -0.097,-0.457902 -0.397744,-2.438353 -0.668444,-4.401002 -0.27069,-1.962646 -0.52712,-3.796853 -0.56979,-4.076013 -0.0427,-0.27916 -0.0471,0.308164 -0.0101,1.305166 0.0777,2.078004 0.58614,5.723484 0.998264,7.156066 0.33692,1.17119 0.49663,1.18128 0.24987,0.01578 z m 1.24958,-1.318068 c -0.13715,-0.707135 -0.44116,-2.721384 -0.67555,-4.476107 -0.50994,-3.817186 -0.76842,-5.007424 -0.64562,-2.972877 0.12077,2.000848 0.6789,5.924828 1.05903,7.445706 0.18069,0.722881 0.32852,1.344574 0.32852,1.381542 0,0.03696 0.0412,0.03126 0.0915,-0.01267 0.0503,-0.04394 -0.0207,-0.658452 -0.15789,-1.365591 z m 11.24248,-3.676244 c -0.0588,-0.196048 -0.37074,-0.36609 -0.97891,-0.533493 -0.49101,-0.135147 -0.92216,-0.217739 -0.95811,-0.183538 -0.036,0.0342 -0.0284,0.274273 0.0168,0.533493 0.0819,0.469234 0.0864,0.47131 1.04428,0.47131 0.8778,0 0.95454,-0.02521 0.87589,-0.287772 z m -0.24626,-1.125058 c -0.0504,-0.228739 -1.71067,-0.893167 -1.86391,-0.745944 -0.0321,0.0308 -0.0212,0.268097 0.024,0.527318 0.0812,0.46542 0.0935,0.471309 0.98896,0.471309 0.77268,0 0.89852,-0.03736 0.85103,-0.252683 z m -0.13471,-1.049137 c 0,-0.269758 -1.7138,-1.020512 -1.91953,-0.840873 -0.0417,0.03636 -0.0285,0.272311 0.0292,0.524332 0.10218,0.446077 0.12861,0.458217 0.99764,0.458217 0.49096,0 0.89266,-0.06376 0.89266,-0.141676 z m -9.36479,-5.001732 c -0.28357,-0.377914 -1.1364,-0.520016 -1.34575,-0.224238 -0.0624,0.08816 0.0869,0.110008 0.38998,0.05707 0.40495,-0.07072 0.54142,-0.01867 0.77811,0.296746 0.15787,0.210379 0.32439,0.349879 0.37006,0.309999 0.0457,-0.03988 -0.0409,-0.237692 -0.1924,-0.439582 z"
       id="path1009"
       inkscape:path-effect="#path-effect1390"
       inkscape:original-d="m 102.25836,116.81652 c -3.532694,-0.43733 -6.032594,-1.28988 -6.735994,-2.29717 -0.23345,-0.33431 -0.32129,-0.72703 -0.32175,-1.43833 -5e-4,-0.91425 0.0374,-1.01519 0.5787,-1.53837 0.32329,-0.31246 1.02115,-0.73306 1.57905,-0.95169 1.35922,-0.53262 3.917644,-1.0821 5.547904,-1.19152 l 1.34512,-0.0903 0.26945,0.99748 0.26945,0.99749 0.0211,-4.02054 0.0211,-4.02054 -0.50816,-0.22945 c -0.70301,-0.31743 -1.79044,-1.19782 -2.07682,-1.68139 -0.38311,-0.6469 -0.28459,-1.379281 0.34292,-2.549319 0.31971,-0.596108 0.58127,-1.174231 0.58127,-1.28471 0,-0.110487 -0.22751,-0.303608 -0.50558,-0.429175 -0.96195,-0.434357 -1.37655,-1.427204 -0.97811,-2.342281 0.0974,-0.223701 0.13177,-0.617688 0.0763,-0.875525 -0.0863,-0.401616 -0.19947,-0.492019 -0.78985,-0.630831 -0.92171,-0.216714 -1.656914,-0.894436 -2.103304,-1.938842 l -0.36763,-0.860178 0.34111,-0.402863 c 0.42576,-0.502866 0.43093,-0.611808 0.0198,-0.419709 -0.17667,0.08257 -0.36352,0.150121 -0.41518,0.150121 -0.21783,0 -0.0689,-0.568783 0.23819,-0.909682 0.42632,-0.473254 0.42084,-0.592154 -0.0178,-0.387152 -0.62648,0.292764 -0.76707,-0.07046 -0.26553,-0.685979 0.42621,-0.523052 0.4795,-0.856794 0.0813,-0.509087 -0.26198,0.228767 -0.62833,0.218418 -0.62833,-0.01774 0,-0.104144 0.18596,-0.409448 0.41326,-0.678452 0.40415,-0.478337 0.43856,-0.80411 0.049,-0.463946 -0.26181,0.228604 -0.62834,0.21848 -0.62834,-0.01735 0,-0.103927 0.23691,-0.470262 0.52648,-0.81408 l 0.52649,-0.625119 -0.51823,0.234005 c -0.28504,0.128704 -0.55933,0.234006 -0.60953,0.234006 -0.25061,0 -0.035,-0.527879 0.4209,-1.030515 0.52411,-0.577813 0.48739,-0.722036 -0.0873,-0.342548 -0.76107,0.502654 -0.81537,-0.06345 -0.0807,-0.841681 0.52378,-0.55484 0.486,-0.695804 -0.0853,-0.318466 -0.69456,0.458716 -0.81775,0.02637 -0.20037,-0.703125 0.65997,-0.779783 0.68875,-0.895518 0.13753,-0.552788 l -0.52821,0.328432 v -0.986668 c 0,-1.278048 0.53974,-2.243727 1.9267,-3.447099 1.249374,-1.083987 2.540014,-1.771392 3.680474,-1.960251 1.57091,-0.260137 5.24056,0.330808 6.87355,1.106884 1.50788,0.716618 2.04797,1.955757 3.05888,7.018015 0.78517,3.931832 0.87388,6.227122 0.27828,7.200403 -0.56589,0.924757 -1.45614,1.61686 -2.79259,2.171057 l -1.20523,0.49978 0.0901,1.621255 c 0.10217,1.839872 -0.11935,2.583307 -0.85723,2.876867 l -0.42383,0.168628 v 3.035118 3.03512 l 0.80895,0.79252 c 0.44492,0.43589 1.02411,1.13155 1.28711,1.54593 0.41847,0.65936 0.47816,0.90277 0.47816,1.94982 0,1.12261 0.0217,1.1964 0.35239,1.1964 0.63433,0 3.52561,0.69909 4.54761,1.09957 0.55789,0.21862 1.25577,0.63922 1.57904,0.95168 0.54291,0.52472 0.57932,0.62235 0.57932,1.55318 0,0.79232 -0.0764,1.09296 -0.37792,1.48602 -0.76118,0.99246 -3.77894,1.95168 -7.25735,2.30682 -1.88589,0.19254 -5.71831,0.15597 -7.56095,-0.0721 z m 7.81121,-1.09917 c 1.8114,-0.22 3.64699,-0.65353 4.85231,-1.14601 0.57089,-0.23326 1.03799,-0.4478 1.03799,-0.47674 0,-0.0289 -0.62018,0.12852 -1.37818,0.34989 -2.5051,0.73165 -4.12956,0.90965 -8.33744,0.91356 -2.4167,0.002 -4.29781,-0.0668 -5.12109,-0.188 -0.7157,-0.10535 -1.33829,-0.15924 -1.38353,-0.11973 -0.0923,0.0806 2.00994,0.50851 3.32219,0.67617 1.32337,0.16908 5.58608,0.16352 7.00775,-0.009 z m -3.09738,-11.12032 c -0.0106,-4.28711 -0.0681,-8.21892 -0.12762,-8.737358 -0.0594,-0.518443 -0.15642,2.939284 -0.21535,7.683848 -0.0589,4.74455 -0.0718,8.67635 -0.0286,8.73735 0.33847,0.47821 0.38934,-0.5735 0.37163,-7.68384 z m 2.40979,4.51996 c 0.38441,-0.87474 -0.20629,-2.62621 -1.14559,-3.39673 l -0.41439,-0.33993 v 1.89843 c 0,2.04645 -0.005,2.03551 0.93719,2.05617 0.33182,0.008 0.55872,-0.0721 0.62279,-0.21794 z m 0.4311,-2.49761 c -0.19642,-0.3987 -0.55012,-0.87816 -0.78599,-1.06546 -0.38767,-0.30786 -0.37751,-0.27425 0.10579,0.34997 0.29404,0.3798 0.61381,0.88888 0.71059,1.1313 0.0968,0.24242 0.20989,0.41114 0.25135,0.37492 0.0414,-0.0362 -0.0853,-0.39204 -0.28174,-0.79073 z m -6.0428,-4.69434 c -0.82336,-0.59262 -1.13834,-1.22747 -0.92753,-1.86935 0.0864,-0.263367 0.12637,-0.505829 0.0886,-0.538819 -0.0378,-0.03299 -0.15721,0.198016 -0.26541,0.513349 -0.16709,0.48696 -0.15273,0.65428 0.0952,1.11061 0.16059,0.29551 0.56022,0.69645 0.88807,0.89097 0.82743,0.49096 0.88314,0.4418 0.121,-0.10676 z m 0.85944,-3.913013 c -0.37307,-0.206725 -0.44053,-0.142629 -1.0377,0.98596 -0.8531,1.612263 -0.78413,2.035123 0.46031,2.822743 l 0.69721,0.44127 0.0462,-2.06616 c 0.0349,-1.555411 -0.006,-2.095239 -0.16607,-2.183813 z m 1.10106,-1.76094 c 0.13104,-0.414676 0.28607,-1.06394 0.34452,-1.442799 l 0.10626,-0.688837 h 0.88818 0.88818 l 0.18212,0.978871 c 0.1002,0.538383 0.20528,1.142023 0.2336,1.341422 0.0427,0.301389 0.0739,0.270099 0.1845,-0.185489 0.0732,-0.301417 0.08,-1.166085 0.0151,-1.921488 l -0.11788,-1.373465 h -1.52073 -1.52074 v 1.776478 c 0,0.977061 -0.0641,1.931475 -0.14235,2.120926 -0.0988,0.239072 -0.0868,0.31445 0.0393,0.246397 0.0999,-0.05395 0.28891,-0.437333 0.41993,-0.852016 z m -1.3108,-0.0039 c 0.41073,-0.512036 0.31089,-1.224013 -0.23894,-1.704128 -0.267,-0.233146 -0.61122,-0.423901 -0.76491,-0.423901 -0.20759,0 -0.14681,0.108211 0.23634,0.420732 0.38199,0.31158 0.51579,0.549028 0.51579,0.915275 0,0.477116 -0.4833,1.129307 -0.83686,1.129307 -0.0878,0 -0.15961,0.06186 -0.15961,0.137475 0,0.231199 0.9813,-0.14204 1.24819,-0.474754 z m -0.32362,-4.002409 c 0.98633,-0.493998 1.64499,-1.196773 2.174,-2.319623 0.23548,-0.499828 0.38271,-0.684997 0.38514,-0.484397 0.006,0.521724 -0.60719,1.78066 -1.16108,2.382508 -0.61058,0.663422 -0.45577,0.708953 0.45397,0.133512 0.75817,-0.479572 1.23583,-1.018045 1.70661,-1.923856 0.17918,-0.344775 0.32743,-0.553496 0.32943,-0.463824 0.008,0.384651 -0.54,1.452718 -1.08877,2.119697 l -0.59305,0.720813 0.69834,-0.341626 c 0.91249,-0.446395 1.73646,-1.299498 2.14023,-2.215892 0.39049,-0.886274 0.43871,-0.711681 0.0882,0.319115 -0.13942,0.409903 -0.51259,1.041702 -0.82931,1.403996 -0.3167,0.362295 -0.53373,0.658719 -0.48229,0.658719 0.0514,0 0.41173,-0.191161 0.80062,-0.4248 0.77992,-0.468544 1.48386,-1.205197 1.84494,-1.930642 0.12932,-0.25983 0.23806,-0.400584 0.24163,-0.312786 0.0145,0.357397 -0.40549,1.185585 -0.93037,1.834369 -0.30651,0.378864 -0.50007,0.688837 -0.43015,0.688837 0.32358,0 1.94354,-1.425241 2.21659,-1.950175 0.19829,-0.381186 0.30696,-0.484991 0.30934,-0.295461 0.005,0.402548 -0.58843,1.34874 -1.21705,1.940443 l -0.52313,0.492402 0.55835,-0.274878 c 0.82813,-0.407689 1.65889,-1.327361 1.93657,-2.143847 0.25847,-0.759979 0.32626,-2.21854 0.11652,-2.506476 -0.068,-0.09345 -0.53404,-0.266983 -1.03545,-0.385624 l -0.91168,-0.215709 0.95496,-0.01318 c 0.81832,-0.0113 0.95495,-0.05216 0.95495,-0.285619 0,-0.276205 -0.37713,-0.458815 -1.49471,-0.72375 -0.55441,-0.131426 -0.53713,-0.1384 0.37367,-0.150875 0.74565,-0.01021 0.95496,-0.06238 0.95496,-0.238007 0,-0.230598 -0.80736,-0.590404 -1.65821,-0.738994 l -0.478,-0.08348 0.067,1.140027 c 0.0595,1.012125 0.0488,1.066813 -0.0957,0.487446 -0.0896,-0.358921 -0.39052,-2.120895 -0.66874,-3.915498 -0.2782,-1.794602 -0.5386,-3.426059 -0.57866,-3.62546 -0.0401,-0.1994 0.075,0.029 0.25581,0.507565 0.18076,0.47856 0.33081,1.000627 0.33346,1.160147 0.008,0.474898 0.20708,0.606666 1.03771,0.686322 0.68259,0.06546 0.78887,0.04028 0.78887,-0.18698 0,-0.172742 -0.29843,-0.3904 -0.87193,-0.635936 l -0.8719,-0.373307 0.78887,0.07091 c 0.43389,0.039 0.78888,0.04486 0.78888,0.01303 0,-0.305998 -0.3544,-0.608604 -1.06317,-0.907811 l -0.84674,-0.357445 0.70583,0.08598 c 0.44253,0.05391 0.70583,0.0295 0.70583,-0.06541 0,-0.324253 -0.471,-1.09877 -0.83602,-1.374732 -0.24364,-0.18421 -0.33828,-0.210667 -0.25938,-0.07251 0.0684,0.11964 -0.0153,0.08028 -0.18592,-0.08747 -0.41577,-0.408837 -1.04377,-0.701954 -1.04377,-0.48717 0,0.08835 -0.19693,0.02539 -0.4376,-0.139917 -0.48587,-0.333721 -1.15351,-0.416933 -0.95709,-0.119289 0.0658,0.0997 -0.0655,0.03444 -0.29154,-0.145018 -0.22615,-0.179461 -0.6145,-0.326291 -0.86302,-0.326291 -0.41568,0 -0.43623,0.02613 -0.25682,0.326291 0.16425,0.274737 0.12706,0.26328 -0.23534,-0.07251 -0.23671,-0.21934 -0.52738,-0.403792 -0.64592,-0.409896 -0.11855,-0.0061 -0.34632,-0.03296 -0.50616,-0.05968 -0.34116,-0.05703 -0.3747,0.08215 -0.083,0.344582 0.11417,0.102739 -0.0703,0.0453 -0.40996,-0.127637 -0.61275,-0.311993 -0.625,-0.312396 -1.57775,-0.05191 l -0.9602,0.262522 0.70654,0.0475 c 0.58444,0.03929 0.74945,0.119984 0.95496,0.46699 0.13662,0.230717 0.24841,0.511243 0.24841,0.62339 0,0.14634 0.32078,0.229938 1.13625,0.296116 0.62494,0.05072 1.57781,0.221313 2.11751,0.379104 l 0.98126,0.286891 -1.96299,-0.08318 c -1.95065,-0.08265 -1.96945,-0.08034 -2.98943,0.367955 -0.56453,0.248123 -1.32537,0.684572 -1.69074,0.969886 -0.7541,0.588867 -0.74923,0.588325 0.83039,-0.09249 1.08819,-0.469002 1.26349,-0.500349 2.74031,-0.490015 0.97765,0.0068 1.86201,0.09792 2.3251,0.239445 l 0.74736,0.228404 -1.90991,0.01445 c -1.74352,0.0132 -1.99672,0.05078 -2.90638,0.431382 -0.54806,0.229311 -1.29541,0.651029 -1.66079,0.937152 l -0.66432,0.520222 1.2456,-0.538466 c 1.21121,-0.523605 1.296,-0.538387 3.07246,-0.535596 1.15723,0.0018 2.10081,0.08155 2.57422,0.217527 l 0.74736,0.214658 -2.24207,0.07251 c -2.50223,0.08092 -3.19371,0.275038 -4.41868,1.240409 l -0.64672,0.509681 1.02182,-0.434952 c 1.72636,-0.734845 3.43255,-0.856397 5.62133,-0.400473 0.81448,0.169657 0.79039,0.174383 -1.2567,0.246561 -1.95273,0.06885 -2.15587,0.104417 -3.1555,0.552476 -0.86871,0.389381 -2.65421,1.517403 -2.06488,1.304525 0.0913,-0.033 0.57712,-0.227656 1.07951,-0.43258 1.07986,-0.440471 2.36696,-0.700408 3.46814,-0.700408 1.01635,0 2.73492,0.29862 2.56079,0.444966 -0.0732,0.06154 -0.95521,0.133424 -1.95999,0.15975 -1.64701,0.04315 -1.93316,0.09267 -2.90638,0.502958 -0.59374,0.2503 -1.34109,0.660329 -1.66079,0.911178 l -0.58128,0.456087 0.83039,-0.362224 c 1.42762,-0.622731 2.77989,-0.848441 4.55843,-0.760852 0.87257,0.04297 1.80313,0.124765 2.06789,0.181762 0.27266,0.05869 0.44316,0.04735 0.3932,-0.02616 -0.0485,-0.07138 -0.13483,-0.488711 -0.19181,-0.927392 -0.057,-0.43868 -0.14533,-1.091263 -0.19633,-1.450184 -0.17783,-1.251496 -0.21327,-1.528382 -0.30613,-2.392804 -0.0765,-0.711214 -0.0624,-0.790661 0.0772,-0.435054 0.26794,0.683035 0.95296,4.929873 1.05314,6.528912 0.0887,1.415162 -0.0301,1.258244 -0.30391,-0.401885 l -0.11364,-0.688837 -1.11086,0.0064 c -2.79121,0.016 -4.5511,0.450724 -5.84411,1.443584 l -0.58127,0.446349 0.66931,-0.282246 c 1.35391,-0.570937 2.59104,-0.795789 4.31306,-0.78391 0.91343,0.0063 1.885,0.07378 2.15902,0.149952 0.42833,0.119062 0.28851,0.153754 -0.99647,0.24725 -0.82209,0.05981 -1.86839,0.167398 -2.32511,0.239072 -0.94313,0.148007 -2.5813,0.814899 -3.32158,1.3522 -0.49677,0.360567 -0.49481,0.360391 0.66737,-0.05978 1.78744,-0.646205 4.45126,-0.909183 5.97579,-0.58994 0.49522,0.103699 0.49571,0.104841 0.083,0.187863 -0.22836,0.04594 -1.16255,0.151239 -2.07598,0.233996 -1.43024,0.129577 -1.85029,0.234195 -3.0258,0.753594 -1.775,0.784274 -2.11063,1.125711 -0.62737,0.638211 0.61667,-0.202686 1.16254,-0.332456 1.21301,-0.288378 0.0504,0.04408 0.12644,0.650284 0.16879,1.347126 0.093,1.530598 0.33246,1.231463 0.34978,-0.436984 0.009,-0.866433 0.0655,-1.123893 0.2462,-1.123893 0.536,0 0.44344,2.185853 -0.13383,3.160601 -0.13913,0.234927 -0.63782,0.729292 -1.10822,1.098587 -1.0079,0.791266 -0.71904,0.909611 0.60347,0.247242 z m 7.89073,-2.995822 c 0.008,-0.168939 0.0473,-0.203301 0.1003,-0.08761 0.0479,0.104684 0.0421,0.229763 -0.0131,0.277952 -0.0552,0.04819 -0.0944,-0.03746 -0.0873,-0.190337 z M 99.86288,89.109464 c -0.097,-0.457902 -0.397744,-2.438353 -0.668444,-4.401002 -0.27069,-1.962646 -0.52712,-3.796853 -0.56979,-4.076013 -0.0427,-0.27916 -0.0471,0.308164 -0.0101,1.305166 0.0777,2.078004 0.58614,5.723484 0.998264,7.156066 0.33692,1.17119 0.49663,1.18128 0.24987,0.01578 z m 1.24958,-1.318068 c -0.13715,-0.707135 -0.44116,-2.721384 -0.67555,-4.476107 -0.50994,-3.817186 -0.76842,-5.007424 -0.64562,-2.972877 0.12077,2.000848 0.6789,5.924828 1.05903,7.445706 0.18069,0.722881 0.32852,1.344574 0.32852,1.381542 0,0.03696 0.0412,0.03126 0.0915,-0.01267 0.0503,-0.04394 -0.0207,-0.658452 -0.15789,-1.365591 z m 11.24248,-3.676244 c -0.0588,-0.196048 -0.37074,-0.36609 -0.97891,-0.533493 -0.49101,-0.135147 -0.92216,-0.217739 -0.95811,-0.183538 -0.036,0.0342 -0.0284,0.274273 0.0168,0.533493 0.0819,0.469234 0.0864,0.47131 1.04428,0.47131 0.8778,0 0.95454,-0.02521 0.87589,-0.287772 z m -0.24626,-1.125058 c -0.0504,-0.228739 -1.71067,-0.893167 -1.86391,-0.745944 -0.0321,0.0308 -0.0212,0.268097 0.024,0.527318 0.0812,0.46542 0.0935,0.471309 0.98896,0.471309 0.77268,0 0.89852,-0.03736 0.85103,-0.252683 z m -0.13471,-1.049137 c 0,-0.269758 -1.7138,-1.020512 -1.91953,-0.840873 -0.0417,0.03636 -0.0285,0.272311 0.0292,0.524332 0.10218,0.446077 0.12861,0.458217 0.99764,0.458217 0.49096,0 0.89266,-0.06376 0.89266,-0.141676 z m -9.36479,-5.001732 c -0.28357,-0.377914 -1.1364,-0.520016 -1.34575,-0.224238 -0.0624,0.08816 0.0869,0.110008 0.38998,0.05707 0.40495,-0.07072 0.54142,-0.01867 0.77811,0.296746 0.15787,0.210379 0.32439,0.349879 0.37006,0.309999 0.0457,-0.03988 -0.0409,-0.237692 -0.1924,-0.439582 z"
       inkscape:export-xdpi="96"
       inkscape:export-ydpi="96" />
  </g>
</svg>
